<svg width="224" height="52" viewBox="0 0 224 52" fill="none" xmlns="http://www.w3.org/2000/svg">
<path fill-rule="evenodd" clip-rule="evenodd" d="M213.908 44.4491H211.861V43.7368H213.908V44.4491Z" fill="#0E538F"/>
<path fill-rule="evenodd" clip-rule="evenodd" d="M203.181 43.0957L204.522 44.4491L204.239 44.8053L202.687 43.7368L203.181 43.0957Z" fill="#0E538F"/>
<path fill-rule="evenodd" clip-rule="evenodd" d="M130.561 45.1615H129.361V45.019C129.361 44.6628 129.22 44.3779 129.149 44.3067C129.008 44.2354 128.726 44.1642 128.161 44.1642C127.597 44.1642 127.173 44.2354 127.032 44.3067C126.82 44.4491 126.75 44.6628 126.75 45.019C126.75 45.4464 126.82 45.6601 126.962 45.8026C127.103 45.8738 127.597 45.945 128.444 46.0163C129.432 46.0875 130.067 46.2299 130.349 46.4436C130.631 46.6573 130.773 47.156 130.773 47.8683C130.773 48.7231 130.631 49.293 130.279 49.5779C129.926 49.8628 129.22 49.9341 128.02 49.9341C126.962 49.9341 126.326 49.7916 125.974 49.5779C125.621 49.293 125.48 48.7943 125.48 48.0108V47.7971H126.679V47.9395C126.679 48.4382 126.75 48.7231 126.891 48.7943C127.032 48.8656 127.456 48.9368 128.232 48.9368C128.796 48.9368 129.149 48.8656 129.29 48.7231C129.432 48.5806 129.502 48.2957 129.502 47.8683C129.502 47.5121 129.432 47.3697 129.29 47.2272C129.149 47.156 128.938 47.0847 128.514 47.0135L127.808 46.9423C126.75 46.871 126.115 46.7286 125.832 46.5149C125.55 46.3012 125.409 45.8026 125.409 45.019C125.409 44.2354 125.55 43.7368 125.903 43.4519C126.256 43.1669 126.962 43.0957 128.02 43.0957C129.008 43.0957 129.643 43.2382 129.996 43.4519C130.349 43.6656 130.49 44.1642 130.49 44.8765L130.561 45.1615Z" fill="#0E538F"/>
<path fill-rule="evenodd" clip-rule="evenodd" d="M142.135 48.1533H143.264V48.2958L143.193 49.0081C143.052 49.6492 142.417 49.9342 141.217 49.9342C140.37 49.9342 139.806 49.7917 139.453 49.4355C139.171 49.1506 139.03 48.5095 139.03 47.5122C139.03 46.5862 139.171 45.9451 139.453 45.589C139.735 45.2328 140.3 45.0903 141.147 45.0903C141.923 45.0903 142.488 45.2328 142.77 45.4465C143.052 45.6602 143.193 46.1588 143.193 46.7999H142.064C142.064 46.2301 141.782 46.0164 141.147 46.0164C140.723 46.0164 140.441 46.0876 140.3 46.3013C140.159 46.4438 140.159 46.8712 140.159 47.5835C140.159 48.2246 140.229 48.652 140.37 48.7944C140.512 48.9369 140.794 49.0081 141.288 49.0081C141.641 49.0081 141.923 48.9369 141.994 48.8657C142.135 48.7944 142.135 48.5095 142.135 48.1533Z" fill="#0E538F"/>
<path fill-rule="evenodd" clip-rule="evenodd" d="M145.24 46.5863H144.111C144.111 46.0164 144.252 45.6602 144.464 45.4466C144.746 45.2329 145.24 45.1616 146.016 45.1616C146.863 45.1616 147.428 45.3041 147.71 45.5178C147.992 45.7315 148.134 46.1589 148.134 46.8712V49.863H147.004L147.075 49.2219C146.863 49.6493 146.369 49.9342 145.593 49.9342C144.464 49.9342 143.899 49.4356 143.899 48.5096C143.899 47.5123 144.464 47.0849 145.593 47.0849C146.369 47.0849 146.793 47.2274 147.004 47.5835V46.8C147.004 46.4438 146.934 46.2301 146.793 46.0876C146.652 45.9452 146.44 45.9452 146.016 45.9452C145.522 45.9452 145.24 46.1589 145.24 46.5863ZM145.946 47.7972C145.311 47.7972 145.028 48.0109 145.028 48.4383C145.028 48.7233 145.099 48.937 145.24 49.0082C145.381 49.0794 145.664 49.1507 146.016 49.1507C146.722 49.1507 147.004 48.937 147.004 48.4383C147.004 48.0822 146.652 47.7972 145.946 47.7972Z" fill="#0E538F"/>
<path fill-rule="evenodd" clip-rule="evenodd" d="M149.263 45.2329H150.392V45.9452C150.604 45.4466 151.098 45.1616 151.803 45.1616C152.65 45.1616 153.074 45.4466 153.215 46.0164C153.427 45.4466 153.921 45.1616 154.626 45.1616C155.685 45.1616 156.249 45.7315 156.249 46.8V49.863H155.12V47.0137C155.12 46.3726 154.838 46.0164 154.344 46.0164C153.709 46.0164 153.356 46.3726 153.356 47.0849V49.863H152.227V47.0137C152.227 46.6575 152.156 46.3726 152.086 46.2301C152.015 46.0876 151.803 46.0876 151.45 46.0876C150.745 46.0876 150.462 46.4438 150.462 47.2274V49.863H149.333V45.2329H149.263Z" fill="#0E538F"/>
<path fill-rule="evenodd" clip-rule="evenodd" d="M160.907 43.2383V47.0136H161.19L162.389 45.2328H163.66L162.107 47.441L164.012 49.8629H162.672L161.119 47.7972H160.907V49.8629H159.778V43.2383H160.907Z" fill="#0E538F"/>
<path fill-rule="evenodd" clip-rule="evenodd" d="M167.471 48.3671H168.6V48.5808C168.6 49.5068 167.894 49.9342 166.553 49.9342C165.636 49.9342 165.071 49.7918 164.789 49.4356C164.507 49.1507 164.365 48.4383 164.365 47.4411C164.365 46.515 164.507 45.9452 164.789 45.589C165.071 45.3041 165.636 45.0904 166.553 45.0904C167.4 45.0904 167.894 45.2329 168.176 45.5178C168.459 45.8027 168.6 46.4438 168.6 47.2986V47.6548H165.495V47.8685C165.495 48.2959 165.565 48.652 165.706 48.7945C165.848 48.937 166.13 49.0082 166.553 49.0082C166.977 49.0082 167.188 48.937 167.33 48.8657C167.4 48.8657 167.471 48.7233 167.471 48.3671ZM166.483 43.3096L167.965 44.3068L167.753 44.7342L166.553 44.0931L165.354 44.7342L165.071 44.3068L166.483 43.3096ZM167.471 47.0849V46.8712C167.471 46.5151 167.4 46.2301 167.259 46.1589C167.118 46.0164 166.836 46.0164 166.412 46.0164C165.989 46.0164 165.706 46.0877 165.636 46.2301C165.495 46.3726 165.424 46.6575 165.424 47.0849H167.471Z" fill="#0E538F"/>
<path fill-rule="evenodd" clip-rule="evenodd" d="M172.481 45.2328V46.0876H170.717V48.4383C170.717 48.8657 170.858 49.0794 171.211 49.0794C171.564 49.0794 171.776 48.7944 171.776 48.2958V48.0821H172.693V48.2958C172.693 48.5095 172.693 48.7232 172.693 48.8657C172.622 49.578 172.128 49.9342 171.14 49.9342C170.152 49.9342 169.658 49.5068 169.658 48.5807V46.0876H169.023V45.2328H169.658V44.1643H170.788V45.2328H172.481Z" fill="#0E538F"/>
<path fill-rule="evenodd" clip-rule="evenodd" d="M175.798 45.2329H176.928L176.857 46.0164C177.069 45.4466 177.563 45.1616 178.268 45.1616C179.327 45.1616 179.892 45.6602 179.892 46.7287V49.863H178.762V47.0849V46.8712V46.515C178.692 46.1589 178.41 46.0164 177.986 46.0164C177.28 46.0164 176.857 46.3726 176.857 47.0849V49.863H175.728V45.2329H175.798Z" fill="#0E538F"/>
<path fill-rule="evenodd" clip-rule="evenodd" d="M185.114 45.2329V50.0055C185.114 50.789 184.973 51.2876 184.691 51.5726C184.408 51.8575 183.844 52 182.997 52C182.221 52 181.656 51.8575 181.374 51.6438C181.091 51.4301 180.95 51.0027 180.95 50.3616H182.009C182.009 50.6465 182.079 50.8603 182.15 50.9315C182.291 51.0027 182.503 51.0739 182.926 51.0739C183.632 51.0739 183.985 50.789 183.985 50.2192V49.1507C183.773 49.6493 183.35 49.863 182.644 49.863C181.938 49.863 181.444 49.7205 181.233 49.3644C180.95 49.0082 180.88 48.3671 180.88 47.4411C180.88 46.5863 181.021 45.9452 181.233 45.6602C181.515 45.3041 181.938 45.1616 182.644 45.1616C183.35 45.1616 183.844 45.4466 184.055 46.0164L183.985 45.2329H185.114ZM182.926 46.0876C182.503 46.0876 182.221 46.1589 182.079 46.3726C181.938 46.515 181.868 46.9424 181.868 47.5835C181.868 48.2246 181.938 48.652 182.079 48.8657C182.221 49.0794 182.503 49.1507 182.926 49.1507C183.35 49.1507 183.632 49.0794 183.773 48.8657C183.914 48.652 183.985 48.2959 183.985 47.6548C183.985 47.0137 183.914 46.6575 183.773 46.4438C183.703 46.1589 183.42 46.0876 182.926 46.0876Z" fill="#0E538F"/>
<path fill-rule="evenodd" clip-rule="evenodd" d="M187.372 46.5863H186.243C186.243 46.0164 186.384 45.6602 186.596 45.4466C186.878 45.2329 187.372 45.1616 188.149 45.1616C188.996 45.1616 189.56 45.3041 189.842 45.5178C190.125 45.7315 190.266 46.1589 190.266 46.8712V49.863H189.137L189.207 49.2219C188.996 49.6493 188.502 49.9342 187.725 49.9342C186.596 49.9342 186.031 49.4356 186.031 48.5096C186.031 47.5123 186.596 47.0849 187.725 47.0849C188.502 47.0849 188.925 47.2274 189.137 47.5835V46.8C189.137 46.4438 189.066 46.2301 188.925 46.0876C188.784 45.9452 188.572 45.9452 188.149 45.9452C187.655 45.9452 187.372 46.1589 187.372 46.5863ZM188.078 47.7972C187.443 47.7972 187.161 48.0109 187.161 48.4383C187.161 48.7233 187.231 48.937 187.372 49.0082C187.514 49.0794 187.796 49.1507 188.149 49.1507C188.784 49.1507 189.137 48.937 189.137 48.4383C189.137 48.0822 188.784 47.7972 188.078 47.7972Z" fill="#0E538F"/>
<path fill-rule="evenodd" clip-rule="evenodd" d="M195.136 45.2329L193.936 50.148C193.795 50.8603 193.583 51.2877 193.301 51.5726C193.018 51.7863 192.666 51.9288 192.101 51.9288C191.96 51.9288 191.819 51.9288 191.677 51.9288V51.074H191.889C192.383 51.074 192.666 50.6466 192.807 49.863H192.242L190.76 45.2329H191.96L192.524 47.2274L192.807 48.2247C192.807 48.2959 192.877 48.4384 192.948 48.7233L193.089 49.222L193.16 48.7233C193.23 48.4384 193.23 48.2959 193.23 48.2247L193.442 47.2274L193.865 45.2329H195.136Z" fill="#0E538F"/>
<path fill-rule="evenodd" clip-rule="evenodd" d="M201.134 45.2328V46.0876H199.37V48.4383C199.37 48.8657 199.511 49.0794 199.864 49.0794C200.217 49.0794 200.428 48.7944 200.428 48.2958V48.0821H201.346V48.2958C201.346 48.5095 201.346 48.7232 201.346 48.8657C201.275 49.578 200.781 49.9342 199.793 49.9342C198.805 49.9342 198.311 49.5068 198.311 48.5807V46.0876H197.605V45.2328H198.241V44.1643H199.37V45.2328H201.134Z" fill="#0E538F"/>
<path fill-rule="evenodd" clip-rule="evenodd" d="M213.696 43.2383V49.8629H212.638L212.708 49.0794C212.497 49.6492 212.003 49.9342 211.297 49.9342C210.591 49.9342 210.097 49.7917 209.815 49.4355C209.603 49.0794 209.462 48.4383 209.462 47.3698C209.462 46.515 209.603 45.9451 209.815 45.6602C210.097 45.304 210.521 45.1616 211.156 45.1616C211.932 45.1616 212.355 45.3753 212.567 45.8739V43.2383H213.696ZM211.509 46.0876C211.085 46.0876 210.803 46.1588 210.732 46.3725C210.591 46.5862 210.521 46.9424 210.521 47.5123C210.521 48.1533 210.591 48.652 210.732 48.7944C210.873 49.0081 211.156 49.0794 211.579 49.0794C212.003 49.0794 212.285 49.0081 212.426 48.7944C212.567 48.5807 212.638 48.1533 212.638 47.441C212.638 46.8712 212.567 46.515 212.426 46.3013C212.214 46.1588 211.932 46.0876 211.509 46.0876Z" fill="#0E538F"/>
<path fill-rule="evenodd" clip-rule="evenodd" d="M215.955 46.5863H214.825C214.825 46.0164 214.967 45.6603 215.178 45.4466C215.461 45.2329 215.955 45.1616 216.731 45.1616C217.578 45.1616 218.142 45.3041 218.425 45.5178C218.707 45.7315 218.848 46.1589 218.848 46.8712V49.863H217.719L217.79 49.2219C217.578 49.6493 217.084 49.9342 216.308 49.9342C215.178 49.9342 214.614 49.4356 214.614 48.5096C214.614 47.5123 215.178 47.0849 216.308 47.0849C217.084 47.0849 217.507 47.2274 217.719 47.5835V46.8C217.719 46.4438 217.648 46.2301 217.507 46.0877C217.366 45.9452 217.154 45.9452 216.731 45.9452C216.237 45.9452 215.955 46.1589 215.955 46.5863ZM216.802 43.3096L218.284 44.3068L218.072 44.7342L216.872 44.0931L215.672 44.7342L215.39 44.3068L216.802 43.3096ZM216.66 47.7972C216.025 47.7972 215.743 48.0109 215.743 48.4383C215.743 48.7233 215.814 48.937 215.955 49.0082C216.096 49.0794 216.378 49.1507 216.731 49.1507C217.366 49.1507 217.719 48.937 217.719 48.4383C217.719 48.0822 217.366 47.7972 216.66 47.7972Z" fill="#0E538F"/>
<path fill-rule="evenodd" clip-rule="evenodd" d="M224 45.2329V49.863H222.871L222.941 49.0795C222.73 49.6493 222.236 49.9343 221.459 49.9343C220.401 49.9343 219.907 49.4357 219.907 48.3672V45.2329H221.036V48.0822C221.036 48.5096 221.106 48.7233 221.177 48.8658C221.318 49.0083 221.53 49.0795 221.883 49.0795C222.589 49.0795 222.941 48.6521 222.941 47.7973V45.2329H224Z" fill="#0E538F"/>
<path fill-rule="evenodd" clip-rule="evenodd" d="M134.019 50.5752V51.5725H133.031V50.5752H134.019Z" fill="#0E538F"/>
<path fill-rule="evenodd" clip-rule="evenodd" d="M217.86 42.3123L219.13 43.5944L218.848 44.0218L217.295 42.9534L217.86 42.3123Z" fill="#0E538F"/>
<path fill-rule="evenodd" clip-rule="evenodd" d="M169.941 43.2383L168.388 44.3068L168.106 43.8794L169.447 42.5972L169.941 43.2383Z" fill="#0E538F"/>
<path fill-rule="evenodd" clip-rule="evenodd" d="M136.771 45.2329H135.995C135.995 45.6603 135.924 46.0165 135.642 46.1589V45.2329H134.513V47.7973C134.513 48.6521 134.16 49.0795 133.454 49.0795C133.101 49.0795 132.89 49.0083 132.749 48.8658C132.607 48.7233 132.607 48.5096 132.607 48.0822V45.2329H131.478V48.3672C131.478 49.4357 131.972 49.9343 133.031 49.9343C133.807 49.9343 134.301 49.6493 134.513 49.0795L134.442 49.863H135.572V46.7288C136.136 46.7288 136.63 46.5151 136.771 45.2329Z" fill="#0E538F"/>
<path fill-rule="evenodd" clip-rule="evenodd" d="M207.133 45.2329H206.357C206.357 45.6603 206.286 46.0165 206.004 46.1589V45.2329H204.874V47.7973C204.874 48.6521 204.522 49.0795 203.816 49.0795C203.463 49.0795 203.251 49.0083 203.11 48.8658C202.969 48.7233 202.969 48.5096 202.969 48.0822V45.2329H201.84V48.3672C201.84 49.4357 202.334 49.9343 203.392 49.9343C204.169 49.9343 204.663 49.6493 204.874 49.0795L204.804 49.863H205.933V46.7288C206.498 46.7288 207.062 46.5151 207.133 45.2329Z" fill="#0E538F"/>
<path fill-rule="evenodd" clip-rule="evenodd" d="M81.2301 12.4658H75.7253V33.3371H81.2301V12.4658Z" fill="#0E538F"/>
<path fill-rule="evenodd" clip-rule="evenodd" d="M87.9345 20.5152H88.0757L92.3807 33.3371H96.1916L100.355 20.5152H100.567L100.073 33.3371H104.519V16.5974H97.3208L94.2861 27.0686H94.145L90.9692 16.5974H83.9824V33.3371H88.4285L87.9345 20.5152Z" fill="#0E538F"/>
<path fill-rule="evenodd" clip-rule="evenodd" d="M141.853 40.8166V29.0632H145.805C150.463 29.0632 151.451 27.4248 151.451 22.7234C151.451 18.3782 149.898 16.5974 145.805 16.5974H142.276L137.406 20.8002V37.9673L141.853 40.8166ZM141.853 25.1454V20.444H144.887C146.581 20.444 146.863 21.0139 146.863 22.7234C146.863 24.8604 146.652 25.1454 144.887 25.1454H141.853Z" fill="#0E538F"/>
<path fill-rule="evenodd" clip-rule="evenodd" d="M167.894 16.5974H163.448V22.8659H157.661V16.5974H153.285V33.3371H157.661V26.7837H163.448V33.3371H167.894V16.5974Z" fill="#0E538F"/>
<path fill-rule="evenodd" clip-rule="evenodd" d="M180.386 30.4165L181.233 33.2658H185.749L180.739 16.5261H174.034L169.023 33.2658H173.611L174.458 30.4165H180.386ZM179.539 27.2111H175.446L177.492 19.9453H177.563L179.539 27.2111Z" fill="#0E538F"/>
<path fill-rule="evenodd" clip-rule="evenodd" d="M191.183 25.0029V20.444H194.642C196.124 20.444 196.476 20.8714 196.476 22.3673C196.476 24.2906 196.547 25.0029 194.642 25.0029H191.183ZM186.737 33.3371H191.183V28.9207H194.642C195.982 28.9207 196.476 29.7755 196.476 30.9865V33.3371H200.923V29.9892C200.923 28.0659 199.723 27.0686 197.958 26.9974V26.7837C201.134 26.0714 201.134 24.433 201.134 21.6549C201.134 17.4522 199.229 16.5974 195.418 16.5974H186.878V33.3371H186.737Z" fill="#0E538F"/>
<path fill-rule="evenodd" clip-rule="evenodd" d="M207.274 20.5152H207.415L211.65 33.3371H215.461L219.695 20.5152H219.836L219.413 33.3371H223.788V16.5974H216.59L213.626 27.0686H213.485L210.309 16.5974H203.251V33.3371H207.698L207.274 20.5152Z" fill="#0E538F"/>
<path fill-rule="evenodd" clip-rule="evenodd" d="M141.853 16.0275L129.149 26.8549L120.963 21.5124V16.4549L129.008 21.7261L141.853 10.6138V16.0275Z" fill="#0E538F"/>
<path fill-rule="evenodd" clip-rule="evenodd" d="M112.635 35.9726L125.338 25.074L135.783 31.9836V37.0411L125.48 30.274L112.635 41.3863V35.9726Z" fill="#0E538F"/>
<path fill-rule="evenodd" clip-rule="evenodd" d="M118.846 29.7043H111.718V26.4275H118.775V23.2933H111.718V20.2303H119.269V16.5974H107.272V33.3371H114.611L118.846 29.7043Z" fill="#0E538F"/>
<path fill-rule="evenodd" clip-rule="evenodd" d="M59.8463 33.337V33.8356C69.4442 35.0466 79.1128 38.537 79.1128 40.9589C79.1128 43.4521 64.0807 48.0822 43.6849 48.0822H43.5438C23.1481 48.0822 8.11594 43.4521 8.11594 40.9589C8.11594 38.8932 14.6087 36.2575 22.2306 34.6904C25.2653 42.7397 34.087 46.1589 42.7675 46.1589C42.7675 43.5233 42.7675 38.1808 42.7675 37.8959C51.7303 37.8959 62.1752 33.5507 60.552 22.2959C59.2111 12.537 42.8381 0 42.8381 0V1.85205C46.3667 4.91507 56.4587 14.9589 56.4587 21.9397C56.4587 32.4822 42.8381 32.1973 42.8381 32.1973C42.8381 32.1973 42.8381 35.9014 42.8381 37.9671C42.6969 37.9671 26.8179 37.326 28.0882 23.1507C28.9351 13.7479 40.5091 5.55616 42.8381 3.63288V1.85205C42.8381 1.85205 23.7127 12.1096 21.666 24.0767C20.9603 27.9233 21.172 31.2 22.0895 33.9781C10.3743 35.7589 0 39.8192 0 42.3123C0 45.2329 17.8551 49.9342 43.5438 49.9342H43.7555C69.4442 49.9342 87.2993 45.1616 87.2993 42.3123C87.2993 39.463 73.3964 34.4055 59.8463 33.337Z" fill="#8CC241"/>
</svg>
